<svg
  xmlns="http://www.w3.org/2000/svg"
  viewBox="0 0 30 30"
  fill="currentColor"
  aria-hidden="true"
>
  <g clip-path="url(#clip-phone)">
    <path d="M23.7111 18.583C23.0969 17.9435 22.3561 17.6016 21.571 17.6016C20.7922 17.6016 20.045 17.9372 19.4055 18.5767L17.4047 20.5712C17.2401 20.4826 17.0754 20.4002 16.9172 20.3179C16.6892 20.204 16.4739 20.0963 16.2903 19.9823C14.4161 18.792 12.7129 17.2407 11.0793 15.2336C10.2879 14.2332 9.756 13.391 9.36976 12.5363C9.88896 12.0614 10.3702 11.5675 10.8387 11.0926C11.016 10.9153 11.1933 10.7317 11.3706 10.5544C12.7002 9.22478 12.7002 7.50256 11.3706 6.1729L9.64203 4.44434C9.44574 4.24806 9.24313 4.04545 9.05318 3.84283C8.67327 3.45027 8.27438 3.04504 7.86282 2.66514C7.24864 2.05729 6.51416 1.73438 5.7417 1.73438C4.96923 1.73438 4.22209 2.05729 3.58892 2.66514L1.42347 4.84957C0.613013 5.66003 0.150799 6.64778 0.0494915 7.79382C-0.102469 9.64268 0.442057 11.3649 0.85995 12.4919C1.88569 15.2589 3.41796 17.8232 5.70371 20.5712C8.47699 23.8827 11.8138 26.4977 15.6255 28.3402C17.0818 29.0304 19.0256 29.8471 21.1974 29.9864C23.0589 29.9991 24.2873 29.4736 25.2497 28.4288C25.6043 27.9983 26.3831 27.2511 27.2062 26.4344C27.833 25.7822 28.1623 25.0224 28.1623 24.2436C28.1623 23.4585 27.8267 22.705 27.1872 22.0718L23.7111 18.583Z"/>
    <path d="M16.2114 7.13708C17.8703 7.41568 19.3773 8.20081 20.5803 9.40383C21.7833 10.6069 22.5621 12.1138 22.847 13.7727C22.9167 14.1906 23.2776 14.4819 23.6892 14.4819C24.3033 14.3932 24.6136 13.95 24.5376 13.4815C24.1957 11.4743 23.2459 9.64444 21.796 8.19448C20.346 6.74452 18.5161 5.79476 16.509 5.45285C16.0405 5.37687 15.6036 5.68712 15.5213 6.14934C15.4389 6.61155 15.7429 7.0611 16.2114 7.13708Z"/>
    <path d="M29.9635 13.2336C29.3999 9.92848 27.8423 6.92092 25.4489 4.52754C23.0556 2.13415 20.048 0.576553 16.7429 0.0130316C16.2806 -0.0692806 15.8437 0.247305 15.7614 0.709519C15.6855 1.17807 15.9957 1.61495 16.4643 1.69727C19.4148 2.19747 22.1058 3.59678 24.2459 5.73056C26.386 7.87068 27.779 10.5617 28.2792 13.5122C28.3489 13.9301 28.7098 14.2214 29.1213 14.2214C29.7292 14.1391 30.0458 13.6958 29.9635 13.2336Z"/>
  </g>
  <defs>
    <clipPath id="clip-phone">
      <rect width="30" height="30" />
    </clipPath>
  </defs>
</svg>